<svg width="512" height="512" viewBox="0 0 24 24" fill="none" xmlns="http://www.w3.org/2000/svg">
  <path
    d="M12 0.5c3.8-0.2 7.6 1 10 3.2 2.4 2.1 3.8 5.5 3.6 9 -0.2 3.4-1.6 7-4.2 9.3 -2.6 2.4-6.7 3.6-10.5 3.2 -4-0.4-7.7-2-9.7-5 -2-3-2.1-7.4-0.6-11 1.5-3.4 4.8-7.1 8.7-8.9 0.7-0.3 1.5-0.5 2.7-0.8Z"
    fill="#E01313"
  />
  <g stroke="white" stroke-width="1.6" stroke-linecap="round" stroke-linejoin="round" fill="none">
    <path d="M14 18V6a2 2 0 0 0-2-2H4a2 2 0 0 0-2 2v11a1 1 0 0 0 1 1h2" />
    <path d="M15 18H9" />
    <path d="M19 18h2a1 1 0 0 0 1-1v-3.65a1 1 0 0 0-.22-.624l-3.48-4.35A1 1 0 0 0 17.52 8H14" />
    <circle cx="17" cy="18" r="2" />
    <circle cx="7" cy="18" r="2" />
    <path d="M3 10h7" />
    <path d="M2 13h9" />
    <path d="M3 16h5" />
  </g>
</svg>
