<svg width="512" height="512" viewBox="0 0 24 24" fill="none" xmlns="http://www.w3.org/2000/svg">
  <circle cx="12" cy="12" r="12" fill="#E01313" />
  <g stroke="white" stroke-width="1.6" stroke-linecap="round" stroke-linejoin="round" fill="none">
    <path d="M14 18V6a2 2 0 0 0-2-2H4a2 2 0 0 0-2 2v11a1 1 0 0 0 1 1h2" />
    <path d="M15 18H9" />
    <path d="M19 18h2a1 1 0 0 0 1-1v-3.65a1 1 0 0 0-.22-.624l-3.48-4.35A1 1 0 0 0 17.52 8H14" />
    <circle cx="17" cy="18" r="2" />
    <circle cx="7" cy="18" r="2" />
    <path d="M3 10h7" />
    <path d="M2 13h9" />
    <path d="M3 16h5" />
  </g>
</svg>
