<svg width="512" height="512" viewBox="0 0 24 24" fill="none" xmlns="http://www.w3.org/2000/svg">
  <path
    d="M12 0.5c3.8-0.2 7.6 1 10 3.2 2.4 2.1 3.8 5.5 3.6 9 -0.2 3.4-1.6 7-4.2 9.3 -2.6 2.4-6.7 3.6-10.5 3.2 -4-0.4-7.7-2-9.7-5 -2-3-2.1-7.4-0.6-11 1.5-3.4 4.8-7.1 8.7-8.9 0.7-0.3 1.5-0.5 2.7-0.8Z"
    fill="#E01313"
  />
  <g stroke="white" stroke-width="1.6" stroke-linecap="round" stroke-linejoin="round" fill="none">
    <path
      d="M20 10c0 4.993-5.539 10.193-7.399 11.799a1 1 0 0 1-1.202 0C9.539 20.193 4 14.993 4 10a8 8 0 0 1 16 0"
    />
    <circle cx="12" cy="10" r="3" />
    <path d="M7 20h10" />
    <path d="M10 20c5.5-2.5.8-6.4 3-10" />
    <path d="M9.5 9.4c1.1.8 1.8 2.2 2.3 3.7-2 .4-3.5.4-4.8-.3-1.2-.6-2.3-1.9-3-4.2 2.8-.5 4.4 0 5.5.8z" />
    <path d="M14.1 6a7 7 0 0 0-1.1 4c1.9-.1 3.3-.6 4.3-1.4 1-1 1.6-2.3 1.7-4.6-2.7.1-4 1-4.9 2z" />
  </g>
</svg>
