<svg width="512" height="512" viewBox="0 0 24 24" fill="none" xmlns="http://www.w3.org/2000/svg">
  <path
    d="M12 0.5c3.8-0.2 7.6 1 10 3.2 2.4 2.1 3.8 5.5 3.6 9 -0.2 3.4-1.6 7-4.2 9.3 -2.6 2.4-6.7 3.6-10.5 3.2 -4-0.4-7.7-2-9.7-5 -2-3-2.1-7.4-0.6-11 1.5-3.4 4.8-7.1 8.7-8.9 0.7-0.3 1.5-0.5 2.7-0.8Z"
    fill="#E01313"
  />
  <g stroke="white" stroke-width="1.6" stroke-linecap="round" stroke-linejoin="round" fill="none">
    <rect x="2" y="3" width="20" height="14" rx="2" />
    <line x1="8" y1="21" x2="16" y2="21" />
    <line x1="12" y1="17" x2="12" y2="21" />
    <path d="M6 8h2l1.1 6H17l1.8-5H9.5" />
    <circle cx="10" cy="15.5" r="1.1" />
    <circle cx="16" cy="15.5" r="1.1" />
    <path
      d="M12.4 10.2 17.8 13.8 15.8 14.3 17 16.9 15.6 17.6 14.1 14.9 12.2 16.4V10.7Z"
    />
  </g>
</svg>
