<svg width="512" height="512" viewBox="0 0 24 24" fill="none" xmlns="http://www.w3.org/2000/svg">
  <path
    d="M12 0.5c3.8-0.2 7.6 1 10 3.2 2.4 2.1 3.8 5.5 3.6 9 -0.2 3.4-1.6 7-4.2 9.3 -2.6 2.4-6.7 3.6-10.5 3.2 -4-0.4-7.7-2-9.7-5 -2-3-2.1-7.4-0.6-11 1.5-3.4 4.8-7.1 8.7-8.9 0.7-0.3 1.5-0.5 2.7-0.8Z"
    fill="#E01313"
  />
  <g stroke="white" stroke-width="1.6" stroke-linecap="round" stroke-linejoin="round" fill="none">
    <path d="m2 7 4.41-4.41A2 2 0 0 1 7.83 2h8.34a2 2 0 0 1 1.42.59L22 7" />
    <path d="M2 7h20" />
    <path
      d="M22 7v3a2 2 0 0 1-2 2 2.7 2.7 0 0 1-1.59-.63.7.7 0 0 0-.82 0A2.7 2.7 0 0 1 16 12a2.7 2.7 0 0 1-1.59-.63.7.7 0 0 0-.82 0A2.7 2.7 0 0 1 12 12a2.7 2.7 0 0 1-1.59-.63.7.7 0 0 0-.82 0A2.7 2.7 0 0 1 8 12a2.7 2.7 0 0 1-1.59-.63.7.7 0 0 0-.82 0A2.7 2.7 0 0 1 4 12a2 2 0 0 1-2-2V7"
    />
    <path d="M4 12v8a2 2 0 0 0 2 2h12a2 2 0 0 0 2-2v-8" />
    <path d="M15 22v-4a2 2 0 0 0-2-2h-2a2 2 0 0 0-2 2v4" />
  </g>
</svg>
